<mxfile host="65bd71144e">
    <diagram id="pbh2ctj3G5VBj-bnsWR5" name="Page-1">
        <mxGraphModel dx="537" dy="386" grid="1" gridSize="10" guides="1" tooltips="1" connect="1" arrows="1" fold="1" page="1" pageScale="1" pageWidth="827" pageHeight="1169" background="#F4F1DE" math="0" shadow="0">
            <root>
                <mxCell id="0"/>
                <mxCell id="1" parent="0"/>
                <mxCell id="12" value="restaurateur" style="rounded=0;whiteSpace=wrap;html=1;fillColor=#F2CC8F;strokeColor=#E07A5F;fontColor=#393C56;" parent="1" vertex="1">
                    <mxGeometry x="70" y="850" width="110" height="60" as="geometry"/>
                </mxCell>
                <mxCell id="13" value="" style="triangle;whiteSpace=wrap;html=1;rotation=-90;fillColor=#F2CC8F;strokeColor=#E07A5F;fontColor=#393C56;" parent="1" vertex="1">
                    <mxGeometry x="97.51" y="765.02" width="54.99" height="114.99" as="geometry"/>
                </mxCell>
                <mxCell id="14" value="OU" style="text;html=1;align=center;verticalAlign=middle;resizable=0;points=[];autosize=1;strokeColor=none;fontColor=#393C56;" parent="1" vertex="1">
                    <mxGeometry x="110" y="750" width="30" height="20" as="geometry"/>
                </mxCell>
                <mxCell id="15" value="base de donnÃ©es" style="shape=cylinder3;whiteSpace=wrap;html=1;boundedLbl=1;backgroundOutline=1;size=15;fillColor=#F2CC8F;strokeColor=#E07A5F;fontColor=#393C56;" parent="1" vertex="1">
                    <mxGeometry x="680" y="600" width="60" height="80" as="geometry"/>
                </mxCell>
                <mxCell id="16" value="API" style="shape=ext;double=1;rounded=1;whiteSpace=wrap;html=1;fillColor=#F2CC8F;strokeColor=#E07A5F;fontColor=#393C56;" parent="1" vertex="1">
                    <mxGeometry x="400" y="720" width="120" height="80" as="geometry"/>
                </mxCell>
                <mxCell id="17" value="Yelp" style="shape=ext;double=1;rounded=1;whiteSpace=wrap;html=1;fillColor=#F2CC8F;strokeColor=#E07A5F;fontColor=#393C56;" parent="1" vertex="1">
                    <mxGeometry x="650" y="850" width="120" height="80" as="geometry"/>
                </mxCell>
                <mxCell id="19" value="" style="shape=singleArrow;whiteSpace=wrap;html=1;fillColor=#F2CC8F;strokeColor=#E07A5F;fontColor=#393C56;" parent="1" vertex="1">
                    <mxGeometry x="210" y="720" width="170" height="30" as="geometry"/>
                </mxCell>
                <mxCell id="20" value="" style="shape=singleArrow;whiteSpace=wrap;html=1;rotation=-180;fillColor=#F2CC8F;strokeColor=#E07A5F;fontColor=#393C56;" parent="1" vertex="1">
                    <mxGeometry x="200" y="770" width="170" height="30" as="geometry"/>
                </mxCell>
                <mxCell id="21" value="" style="shape=singleArrow;whiteSpace=wrap;html=1;rotation=-30;fillColor=#F2CC8F;strokeColor=#E07A5F;fontColor=#393C56;" parent="1" vertex="1">
                    <mxGeometry x="520" y="660" width="130" height="30" as="geometry"/>
                </mxCell>
                <mxCell id="22" value="" style="shape=singleArrow;whiteSpace=wrap;html=1;rotation=-211;fillColor=#F2CC8F;strokeColor=#E07A5F;fontColor=#393C56;" parent="1" vertex="1">
                    <mxGeometry x="540" y="690" width="130" height="30" as="geometry"/>
                </mxCell>
                <mxCell id="23" value="" style="shape=singleArrow;whiteSpace=wrap;html=1;rotation=-150;fillColor=#F2CC8F;strokeColor=#E07A5F;fontColor=#393C56;" parent="1" vertex="1">
                    <mxGeometry x="530" y="807.52" width="110" height="30" as="geometry"/>
                </mxCell>
                <mxCell id="24" value="" style="pointerEvents=1;shadow=0;dashed=0;html=1;strokeColor=#E07A5F;fillColor=#F2CC8F;aspect=fixed;labelPosition=center;verticalLabelPosition=bottom;verticalAlign=top;align=center;outlineConnect=0;shape=mxgraph.vvd.laptop;rounded=0;sketch=0;fontColor=#393C56;" vertex="1" parent="1">
                    <mxGeometry x="62.78999999999999" y="640" width="119.45" height="86" as="geometry"/>
                </mxCell>
                <mxCell id="25" value="Client" style="text;html=1;align=center;verticalAlign=middle;resizable=0;points=[];autosize=1;strokeColor=none;fontColor=#393C56;" vertex="1" parent="1">
                    <mxGeometry x="97.50999999999999" y="670" width="50" height="20" as="geometry"/>
                </mxCell>
            </root>
        </mxGraphModel>
    </diagram>
</mxfile>